# xmcd
#
# Track frame offsets: 
#        150
#        17574
#        29466
#        51393
#        68600
#        93144
#        109753
#        128118
#        146559
#        161991
#        173608
#
# Disc length: 2502 seconds
#
# Revision: 0
# Processed by: cddbd v1.5PL3 Copyright (c) Steve Scherf et al.
# Submitted via: ExactAudioCopy v0.95a5
#
DISCID=8e09c40b
DTITLE=Harrison, George - Brainwashed
DYEAR=2007
DGENRE=Blues
TTITLE0=Any Road
TTITLE1=P2 Vatican Blues (Last Saturday Night)
TTITLE2=Pisces Fish
TTITLE3=Looking For My Love
TTITLE4=Rising Sun
TTITLE5=Marwa Blues
TTITLE6=Stuck Inside A Cloud
TTITLE7=Run So Far
TTITLE8=Never Get Over You
TTITLE9=Between The Devil And The Deep Blue Sea
TTITLE10=Rocking Chair In Hawaii
EXTD=ISRAEL make peace!\nIf you still live by the sword, you shall die
EXTD=by it !!!
EXTT0=
EXTT1=
EXTT2=
EXTT3=
EXTT4=
EXTT5=
EXTT6=
EXTT7=
EXTT8=
EXTT9=
EXTT10=
PLAYORDER=
